<svg width="14" height="18" viewBox="0 0 140 180"><title>Giphy</title><defs><style/></defs><polygon points="0 7 0 29.19 0 52.05 0 74.91 0 97.76 0 120.62 0 143.48 0 167 20 167 20 143.48 20 120.62 20 97.76 20 74.91 20 52.05 20 29.19 20 7 0 7" className="cls-1"/><polygon points="120 47 120 70.33 120 94.33 120 118.33 120 142.33 120 167 140 167 140 142.33 140 118.33 140 94.33 140 70.33 140 47 120 47" className="cls-2"/><polygon points="67.5 0 45 0 22.5 0 0 0 0 20 22.5 20 45 20 67.5 20 87 20 87 0 67.5 0" className="cls-3"/><polygon points="60 20 90 20 80 0 60 20" className="cls-4"/><polygon points="140 60 120 50 120 80 140 60" className="cls-4"/><polygon points="120 160 100 160 80 160 60 160 40 160 20 160 0 160 0 180 20 180 40 180 60 180 80 180 100 180 120 180 140 180 140 160 120 160" className="cls-5"/><polygon points="120 40 120 20 100 20 100 0 80 0 80 16.33 80 36.33 80 60 100 60 120 60 140 60 140 40 120 40" className="cls-6"/></svg>